<svg width="108" height="108" viewBox="0 0 108 108" fill="none" xmlns="http://www.w3.org/2000/svg">
<path d="M54 3.00324C82.1189 3.00324 105.005 25.8811 105.005 54.0083C105.005 82.1356 82.1273 105.013 54 105.013C25.8727 105.013 3.00324 82.1273 3.00324 54C3.00324 25.8727 25.8811 3.00324 54 3.00324ZM54 0C24.1756 0 0 24.1756 0 54C0 83.8244 24.1756 108 54 108C83.8244 108 108 83.8244 108 54C108 24.1756 83.8244 0 54 0Z" fill="#44D62C"/>
<path d="M37.9584 68.5833V45.25H40.8751V68.5833H37.9584ZM52.5417 68.5833V45.25H55.4584V68.5833H52.5417ZM29.3206 77.3333V74.4166H78.6796V77.3333H29.3206ZM67.1251 68.5833V45.25H70.0417V68.5833H67.1251ZM29.3206 39.4166V36.9487L54.0001 25.1698L78.6796 36.9487V39.4166H29.3206ZM37.0273 36.5H70.9728L54.0001 28.4791L37.0273 36.5Z" fill="#FFC839"/>
</svg>
