<svg width="108" height="108" viewBox="0 0 108 108" fill="none" xmlns="http://www.w3.org/2000/svg">
<rect width="108" height="108" fill="#D3D3D3"/>
<g id="Icons">
<rect width="892" height="2438" transform="translate(-683 -1590)" fill="#3A3A3A"/>
</g>
<g id="Razer Icon">
<rect x="-645.5" y="-627.5" width="817" height="1266" rx="4.5" stroke="#9747FF" stroke-dasharray="10 5"/>
<g id="Property 1=Grow">
<path id="Vector" d="M54 3.00324C82.1189 3.00324 105.005 25.8811 105.005 54.0083C105.005 82.1356 82.1273 105.013 54 105.013C25.8727 105.013 3.00324 82.1273 3.00324 54C3.00324 25.8727 25.8811 3.00324 54 3.00324ZM54 0C24.1756 0 0 24.1756 0 54C0 83.8244 24.1756 108 54 108C83.8244 108 108 83.8244 108 54C108 24.1756 83.8244 0 54 0Z" fill="#44D62C"/>
<path id="show_chart" d="M29.2081 70.9392L27.0767 68.8077L46.9324 48.9519L58.5991 60.6186L78.9709 37.2853L81.035 39.2372L58.7113 64.9936L46.9324 53.2148L29.2081 70.9392Z" fill="#FFC839"/>
</g>
</g>
</svg>
